<svg xmlns="http://www.w3.org/2000/svg" width="90" height="18" viewBox="0 0 90 13">
    <g fill="none" fill-rule="evenodd">
        <path fill="#FFFFFE" d="M3.516 12.432h2.358c.24 0 .4-.154.4-.385V2.928H8.99c.24 0 .4-.154.4-.385V.581c0-.23-.16-.385-.4-.385H.4c-.24 0-.4.154-.4.385v1.962c0 .231.16.385.4.385h2.717v9.12c0 .23.16.384.4.384m9.35 0h7.631c.24 0 .4-.154.4-.385V10.2c0-.23-.16-.384-.4-.384h-4.995v-2.27h4.036c.24 0 .4-.154.4-.385V5.314c0-.231-.16-.385-.4-.385h-4.036V2.813h4.915c.24 0 .4-.154.4-.385V.58c0-.23-.16-.385-.4-.385h-7.552c-.24 0-.4.154-.4.385v11.466c0 .231.16.385.4.385m11.748 0h7.072c.24 0 .4-.154.4-.385v-2c0-.231-.16-.385-.4-.385h-4.315V.582c0-.232-.16-.386-.4-.386h-2.357c-.24 0-.4.154-.4.385v11.466c0 .231.16.385.4.385m11.191 0h7.592c.24 0 .4-.154.4-.385V10.2c0-.23-.16-.384-.4-.384h-4.955v-2.27h3.996c.24 0 .4-.154.4-.385V5.314c0-.231-.16-.385-.4-.385h-3.996V2.813h4.875c.24 0 .4-.154.4-.385V.58c0-.23-.16-.385-.4-.385h-7.512c-.24 0-.4.154-.4.385v11.466c0 .231.16.385.4.385"/>
        <path fill="#FF142D" d="M53.248 0c1.678 0 3.236.731 4.315 1.731.213.206.205.38.06.552l-.06.064-1.278 1.27c-.2.192-.36.192-.56.038-.839-.654-1.558-.885-2.437-.885-1.918 0-3.437 1.27-3.437 3.502 0 2.193 1.479 3.578 3.437 3.578.959 0 1.758-.308 2.597-.962.175-.168.35-.19.498-.089l.061.05 1.319 1.309c.28.23.2.423 0 .616-1.079 1-2.757 1.846-4.595 1.846-3.756 0-6.433-2.577-6.433-6.31 0-3.617 2.957-6.31 6.513-6.31zm35.961.192c.21 0 .359.118.392.302l.008.083v1.847c0 .202-.123.345-.314.378l-.086.007h-4.875v2.116h3.996c.21 0 .359.118.392.302l.008.083v1.847c0 .202-.123.345-.314.378l-.086.007h-3.996v2.27h4.955c.21 0 .358.118.392.302l.008.082v1.847c0 .202-.123.345-.314.378l-.086.007h-7.592c-.21 0-.358-.118-.392-.302l-.007-.083V.577c0-.202.122-.345.313-.378l.086-.007h7.512zm-21.297 0c.206 0 .352.029.516.158l.083.073 6.513 6.31V.578c0-.202.123-.345.314-.378l.086-.007h2.198c.21 0 .358.118.392.302l.007.083v11.466c0 .202-.122.345-.313.378l-.086.007h-.48c-.205 0-.352-.028-.516-.157l-.083-.074-6.673-6.272v6.118c0 .202-.122.345-.314.378l-.086.007h-2.197c-.21 0-.359-.088-.392-.29l-.008-.095V.577c0-.202.123-.345.314-.378l.086-.007h.64zm-4.755 0c.21 0 .359.118.392.302l.008.083v11.466c0 .202-.123.345-.314.378l-.086.007H60.8c-.21 0-.359-.118-.393-.302l-.007-.083V.577c0-.202.122-.345.314-.378L60.8.192h2.357z"/>
    </g>
</svg>
